<svg xmlns="http://www.w3.org/2000/svg" viewBox="0 0 565 565"><path d="M222 4.963C149.879 14.312 92.896 45.711 54.063 97.5 46.189 108.002 31 132.263 31 134.34c0 .265-1.519 3.784-3.375 7.821C19.169 160.547 12.85 182.032 8.847 206c-4.407 26.389-3.229 81.716 2.172 102 .513 1.925 2.088 8.158 3.5 13.851 7.481 30.162 23.52 60.541 44.089 83.512C66.486 414.161 79.246 426 80.85 426c1.069 0 69.647-44.399 69.937-45.279.142-.428-2.767-3.097-6.463-5.93-28.947-22.186-46.686-58.18-51.335-104.16C82.942 171.265 130.543 98.935 219.5 78.396c39.837-9.198 95.595-6.096 144.33 8.03C370.611 88.392 376.349 90 376.58 90c.231 0 .42-15.975.42-35.5s-.216-35.5-.479-35.5c-.264 0-5.101-1.298-10.75-2.885C323.351 4.2 263.626-.433 222 4.963M208 259v35H286.127l53.686-34.628c29.528-19.046 53.875-34.796 54.104-35 .229-.205-41.509-.372-92.75-.372H208v35m156.299 9.487c-69.6 10.677-113.069 80.96-91.226 147.498 21.566 65.693 98.569 97.407 158.894 65.442 3.557-1.885 7.074-3.427 7.815-3.427.741 0 19.735 18.424 42.208 40.942 45.368 45.457 45.457 45.529 57.038 45.516 15.165-.017 25.32-10.195 25.399-25.458.06-11.536-.011-11.625-45.485-57.01C496.424 459.517 478 440.523 478 439.782c0-.741 1.542-4.258 3.427-7.815 29.321-55.335 5.092-126.674-52.146-153.53-20.45-9.595-43.893-13.185-64.982-9.95M370 285.194c-79.9 8.711-114.178 109.285-55.964 164.201 53.578 50.543 138.79 27.207 159.343-43.637 14.274-49.201-17.147-103.933-67.59-117.738-5.905-1.615-24.768-4.34-26.789-3.869-.275.064-4.325.534-9 1.043m-27.692 17.816c-8.38 3.375-6.215 18.778 3.852 27.395l4.229 3.619-3.94 8.081c-2.167 4.444-4.228 8.258-4.58 8.476-.351.217-4.036-1.175-8.189-3.093-5.164-2.386-9.004-3.488-12.154-3.488-14.234 0-24.782 16.835-16.031 25.586 4.507 4.507 11.717 2.056 13.507-4.593 1.311-4.869 1.2-4.866 10.481-.274l7.517 3.72V389h-5.341c-10.772 0-20.803 4.956-25.156 12.43-2.896 4.971-4.932 12.723-4.155 15.819 2.424 9.661 15.449 8.679 17.042-1.285 1.055-6.599 4.218-8.964 11.987-8.964h6.468l1.185 3.75c.652 2.063 2.473 6.081 4.047 8.93l2.861 5.18-3.404 5.653c-6.15 10.214-7.245 20.93-2.611 25.564 5.512 5.512 14.07 2.302 14.083-5.282.008-4.824 1.736-10.252 3.883-12.195 1.771-1.603 2.229-1.582 8.015.368 9.578 3.226 16.369 3.514 25.096 1.062 4.125-1.159 8.477-2.36 9.672-2.67 2.733-.709 5.107 3.447 5.924 10.373 1.259 10.668 8.914 14.757 15.429 8.242 4.197-4.197 1.465-20.674-4.628-27.915l-2.448-2.91 2.891-4.558c1.59-2.508 3.46-6.592 4.155-9.076L423.26 407h6.235c7.903 0 11.201 2.244 12.166 8.279.868 5.43 4.187 8.721 8.794 8.721 14.062 0 9.224-24.679-6.225-31.752-3.801-1.74-7.997-2.726-12.959-3.044l-7.338-.471.283-10.045.284-10.044 7-3.82c8.34-4.551 9.289-4.502 11.03.576 3.958 11.542 17.913 6.706 16.072-5.569-2.075-13.834-16.462-19.606-30.737-12.331-8.911 4.542-8.24 4.79-13-4.807l-4.12-8.308 5.412-5.442c10.172-10.232 10.794-24.16 1.185-26.572-4.502-1.13-10.342 2.891-10.342 7.121 0 9.02-3.689 10.508-26.049 10.508-22.437 0-26.951-1.669-26.951-9.965 0-5.833-5.881-9.366-11.692-7.025m21.936 42.462L360.015 354h40.913l-3.988-8.25-3.988-8.25-12.239-.278-12.239-.278-4.23 8.528m-10.067 42.778c.449 20.83 3.361 27.323 14.943 33.312l2.88 1.489V372h-18.172l.349 16.25M389 397.406v25.407l2.194-.574c1.207-.316 4.539-2.861 7.406-5.656 7.119-6.943 8.4-11.559 8.4-30.265V372h-18v25.406m71.488 63.606-5.95 6.013 9.229 9.229 9.23 9.229 6.236-6.236 6.236-6.236-8.964-9.006c-4.93-4.953-9.212-9.005-9.515-9.005-.304 0-3.23 2.706-6.502 6.012m30.947 30.423c-2.989 2.989-5.435 5.805-5.435 6.257 0 1.334 48.319 48.982 50.403 49.704 5.578 1.931 12.727-5.007 11.044-10.719-.65-2.206-48.239-50.677-49.755-50.677-.452 0-3.268 2.446-6.257 5.435" fill-rule="evenodd"/></svg>